<?xml version="1.0" standalone="no"?>
<!DOCTYPE svg PUBLIC "-//W3C//DTD SVG 20010904//EN"
 "http://www.w3.org/TR/2001/REC-SVG-20010904/DTD/svg10.dtd">
<svg version="1.0" xmlns="http://www.w3.org/2000/svg"
 width="343.000000pt" height="359.000000pt" viewBox="0 0 343.000000 359.000000"
 preserveAspectRatio="xMidYMid meet">
<metadata>
Created by potrace 1.16, written by Peter Selinger 2001-2019
</metadata>
<g transform="translate(0.000000,359.000000) scale(0.100000,-0.100000)"
fill="#000000" stroke="none">
<path d="M1445 3302 l-260 -77 -3 -237 c-2 -218 -1 -238 15 -246 45 -24 390
-72 511 -72 152 0 517 56 534 82 4 7 8 113 8 234 0 177 -3 224 -14 233 -10 9
-519 163 -529 160 -1 0 -119 -35 -262 -77z m329 -116 c66 -20 110 -57 140
-118 77 -154 -32 -330 -204 -330 -173 0 -281 176 -204 330 30 60 74 98 136
117 56 18 75 18 132 1z"/>
<path d="M1635 3126 c-17 -7 -43 -27 -57 -44 -70 -83 -57 -193 29 -259 31 -24
46 -28 103 -28 57 0 72 4 103 28 86 66 99 176 29 259 -46 55 -138 74 -207 44z
m93 -28 c7 -7 12 -31 12 -55 l0 -43 44 0 c46 0 72 -19 62 -45 -4 -11 -20 -15
-55 -15 l-50 0 -3 -52 c-3 -49 -5 -53 -28 -53 -23 0 -25 4 -28 53 l-3 52 -50
0 c-35 0 -51 4 -55 15 -10 26 16 45 62 45 l44 0 0 43 c0 38 13 67 30 67 3 0
11 -5 18 -12z"/>
<path d="M1195 2664 c9 -65 31 -153 50 -198 16 -39 13 -56 -10 -56 -34 0 -45
-41 -45 -171 0 -126 0 -128 26 -148 15 -12 32 -21 39 -21 6 0 18 -19 25 -42
20 -68 64 -149 109 -200 l42 -47 -3 -131 -3 -132 -130 -33 c-345 -89 -610
-216 -734 -350 -79 -86 -149 -273 -178 -481 -15 -107 -15 -113 3 -149 10 -21
30 -47 44 -56 18 -13 205 -48 653 -123 l628 -105 622 104 c652 110 647 109
691 169 66 88 -43 509 -165 641 -128 138 -396 265 -750 354 l-114 29 -3 132
-3 132 45 48 c47 50 79 105 105 182 11 32 27 54 51 70 l35 24 3 133 c2 114 0
137 -14 152 -10 11 -23 19 -31 19 -18 0 -17 5 12 89 24 73 47 200 36 205 -3 1
-38 -5 -77 -13 l-71 -16 19 -30 c14 -23 18 -51 18 -125 l0 -95 -152 -1 c-202
-2 -332 -2 -510 -1 l-146 2 -6 35 c-11 66 -6 115 18 166 l24 51 -64 12 c-35 6
-71 14 -79 18 -15 5 -16 -1 -10 -43z m433 -270 c28 -19 29 -72 2 -131 -26 -59
-69 -83 -148 -83 -109 0 -147 37 -147 142 0 83 9 88 155 88 88 0 121 -4 138
-16z m438 2 c15 -11 19 -27 19 -74 0 -105 -38 -142 -147 -142 -79 0 -122 24
-148 83 -27 59 -26 112 2 131 31 22 245 23 274 2z m-780 -34 c6 -4 14 -29 18
-57 14 -96 71 -145 169 -145 115 0 174 51 201 173 5 22 12 27 36 27 24 0 31
-5 36 -27 20 -92 61 -145 125 -163 86 -25 188 2 221 58 9 15 20 51 24 80 5 40
11 53 27 58 35 11 47 -20 47 -127 0 -104 -10 -127 -49 -114 -16 5 -22 1 -27
-22 -36 -165 -143 -304 -271 -353 -91 -35 -191 -32 -276 8 -93 43 -159 108
-206 203 -22 44 -43 99 -46 124 -7 43 -9 45 -39 42 l-31 -2 -3 109 c-1 61 0
116 2 123 6 14 25 17 42 5z m283 -658 c58 -24 73 -26 160 -22 91 5 114 11 204
56 4 2 7 -55 7 -127 0 -97 3 -133 13 -135 6 -2 64 -16 127 -31 320 -77 579
-191 713 -314 46 -43 69 -75 98 -136 46 -98 84 -228 101 -340 11 -75 10 -89
-5 -120 -10 -21 -30 -41 -49 -50 -18 -8 -302 -60 -630 -115 l-597 -100 -598
100 c-329 55 -612 107 -630 115 -49 22 -66 65 -58 144 18 169 99 390 173 472
117 130 375 251 727 339 l150 38 3 132 c2 99 6 131 15 127 7 -3 41 -18 76 -33z"/>
<path d="M1105 1352 c-231 -80 -408 -178 -475 -262 -64 -81 -133 -273 -152
-425 -14 -107 -4 -136 54 -153 18 -6 291 -52 606 -102 l572 -93 573 92 c314
51 587 97 604 102 65 20 75 64 48 208 -21 106 -59 220 -103 305 -46 88 -129
158 -267 226 -128 62 -284 120 -346 127 l-48 6 -73 -69 c-40 -38 -135 -129
-210 -201 -116 -112 -142 -133 -168 -133 -26 0 -53 21 -173 137 -78 76 -171
165 -207 200 -41 40 -76 64 -95 68 -20 3 -68 -9 -140 -33z m110 -374 c3 -13 4
-92 3 -177 l-3 -155 -45 -26 c-25 -14 -68 -39 -95 -54 l-51 -27 -94 54 -95 53
-3 155 c-1 84 0 164 3 177 5 22 7 22 190 22 183 0 185 0 190 -22z"/>
<path d="M1011 887 c-6 -6 -11 -28 -11 -49 l0 -38 -46 0 c-41 0 -45 -2 -42
-22 2 -19 10 -24 45 -26 42 -3 42 -3 45 -45 2 -34 7 -42 23 -42 16 0 21 8 23
42 3 42 3 42 45 45 35 2 43 7 45 26 3 20 -1 22 -42 22 l-46 0 0 44 c0 45 -17
65 -39 43z"/>
</g>
</svg>
